<?xml version="1.0" encoding="iso-8859-1"?>
<!-- Generator: Adobe Illustrator 19.0.0, SVG Export Plug-In . SVG Version: 6.00 Build 0)  -->
<svg xmlns="http://www.w3.org/2000/svg" xmlns:xlink="http://www.w3.org/1999/xlink" version="1.1" id="Layer_1" x="0px" y="0px" viewBox="0 0 513.136 513.136" style="enable-background:new 0 0 513.136 513.136;" xml:space="preserve" width="512" height="512">
<g>
	<path d="M513.136,191.645L256.327,57.807L0,191.692l121.334,63.701v101.333h271V255.372l60-31.652v114.732l-30.21,65.913   l45.21,50.964l45.21-50.964l-30.21-65.913V207.894L513.136,191.645z M467.334,410.122l-9.79-11.036l9.79-21.36l9.79,21.36   L467.334,410.122z M362.334,326.726h-211v-97.37c33.04-15.022,68.315-22.63,105-22.63c36.74,0,73.187,7.806,106,22.642V326.726z    M392.334,221.453v-10.85c-4.837-1.791-57.353-33.877-136-33.877c-78.602,0-129.035,31.645-135,33.877v10.906l-56.666-29.75   L256.342,91.645l192.191,100.162L392.334,221.453z"/>
</g>















</svg>
